<?xml version="1.0" encoding="UTF-8"?>
<svg version="1.1" viewBox="0 0 480 270" xml:space="preserve" xmlns="http://www.w3.org/2000/svg"><rect width="480" height="270" fill="#1a1a1a" fill-rule="evenodd" stroke-dashoffset="20" stroke-linecap="round" stroke-opacity=".2" stroke-width="4" style="paint-order:fill markers stroke"/><g transform="matrix(.2 0 0 .2 183 32)"><g stroke="#000" stroke-linecap="round" stroke-linejoin="round" stroke-width="7"><path d="m96 89a55 50 0 1 0-49 87l11-33a16 16 0 1 1 14-25zm343 18a16 16 0 1 1 15 25l14 33a55 50 0 1 0-53-85z" fill="#00f6eb"/><path d="m439 107a173 173 0 0 0-25-27c-37-31-85-42-154-41s-123 12-165 49a128 128 0 0 0-25 30l-2 4a230 230 0 0 0-22 54 331 331 0 0 0-9 81c0 55 11 84 10 137l1 69h434l-4-74c-2-47 0-66-1-119s-4-77-11-105a175 175 0 0 0-14-33c-4-9-9-17-15-25z" fill="#00f6eb"/><path d="m170 84a68 65 0 0 0 0 130 68 65 0 0 0 0-130m170-9a68 65 0 0 0 0 130 68 65 0 0 0 0-130m-109 170-1 37c-1 25 31 20 31 5 0 15 31 20 30-5l-1-37zm30 42v-42" fill="#fff"/><path d="m373 397a16 73 40 0 0 95-109 16 73 40 0 0-95 109" fill="#eecc8a"/><path d="m333 429c-2-2-1-5 2-6a12 12 0 0 0 9-11 19 21 0 0 1 32-12 22 21 0 0 1 2 25 29 29 0 0 1-45 4z" fill="#45b559"/><path d="m307 220a34 34 0 0 0-21-10 30 17 0 0 1-57 0 34 34 90 0 0-21 12c-11 12-6 31 9 31h14c12-2 14-7 27-9h2c12 1 14 7 28 9h10c15 0 20-21 9-33zm-227 118c16 2 35 7 44 13s8 22 2 30-15 8-24 3-17-11-22-16zm34 29 14 10m310-13s-31 5-44 12c-10 5-9 21-2 30s15 7 25 4 16-10 22-17zm-49 37 15-10" fill="#e0760a"/></g><path d="m58 143a16 16 0 1 1 14-25zm381-36a16 16 0 1 1 15 25zm-182 79a31 18 0 0 0 0 36 31 18 0 0 0 0-36m-119-42a22 22 0 0 0 0 44 22 22 0 0 0 0-44m176-3a22 22 0 0 0 0 44 22 22 0 0 0 0-44m-183 24a7 7 0 0 1 0 14 7 7 0 0 1 0-14m175-2a7 7 0 0 1 0 14 7 7 0 0 1 0-14"/></g><text x="239.95454" y="183.09091" fill="#dddddd" font-family="Inter" font-size="32px" letter-spacing="0px" text-align="center" text-anchor="middle" word-spacing="0px" style="line-height:1.25" xml:space="preserve"><tspan x="239.95454" y="183.09091" text-align="center">Image too big. Please </tspan><tspan x="239.95454" y="223.09091" text-align="center">use an image up to 8MB.</tspan></text></svg>
