<svg xmlns="http://www.w3.org/2000/svg" viewBox="0 0 512 512" height="512" width="512">
	<g style="stroke:#000;stroke-width:7.38;stroke-linecap:round;stroke-linejoin:round">
		<path fill="#00f6eb" d="M96.33 88.88a55 50 0 10-49.2 87.33l11.07-33.21a15.5 15.5 0 1113.53-24.6zm343.16 18.46a15.5 15.5 0 1114.76 24.6l13.53 33.21a55 50 0 10-52.89-84.87z"/>
		<path fill="#00f6eb" d="M439.49 107.34a173.43 173.43 0 00-24.6-27.06C378 49.53 330 38.46 261.14 39.69S138.14 52 96.32 88.89a127.92 127.92 0 00-24.6 29.52l-2.46 3.69a230 230 0 00-22.14 54.12 330.87 330.87 0 00-8.61 81.18c0 55.35 11.07 83.64 9.84 136.53l1.23 68.88h434.19L480 389c-2.38-46.73 0-66.41-1.15-119.3s-3.69-77.49-11.07-104.55A174.66 174.66 0 00454.25 132c-3.69-8.67-8.61-17.28-14.76-24.66z"/>
		<path fill="#FFF" d="M170.12 84a27 26 0 000 130.38 27 26 0 000-130.38m169.74-8.61a27 26 0 000 130.38 27 26 0 000-130.38M230.39 245.1l-1.23 36.9c-1.23 24.6 30.75 19.68 30.75 4.92 0 14.76 30.75 19.68 29.52-4.92l-1.23-36.9zm29.52 41.82V245.1"/>
		<path fill="#eecc8a" d="M373 397a2 9 40 0095-109 2 9 40 00-95 109"/>
		<path fill="#45b559" d="M333 429c-2-2-1-5 2-6a12 12 0 009-11 19 21 0 0132-12 22 21 0 012 25 29 29 0 01-45 4z"/>
		<path fill="#e0760a" d="M306.65 220.5a34.44 34.44 0 00-20.91-9.84 30 17 0 01-56.58 0 34.44 34.44 90 00-20.91 12.3c-11.07 12.3-6.15 30.75 8.61 30.75h13.53c12.3-2.46 13.53-7.38 27.06-8.61l2.46 0c12.3 1.23 13.53 7.38 28.29 8.61h9.84c14.76 0 19.68-20.91 8.61-33.21zM80 338c16 2 35 7 44 13s8 22 2 30-15 8-24 3-17-11-22-16zm34 29 14 10m309.87-12.51s-30.75 4.92-44.28 12.3c-9.84 4.92-8.61 20.91-2.46 29.52s14.76 7.38 24.6 3.69 15.99-9.84 22.14-17.22zm-49.2 36.9 14.76-9.84"/>
	</g>
	<path d="M58.2 143a15.5 15.5 0 1113.53-24.6zm381.29-35.66a15.5 15.5 0 1114.76 24.6zM257.45 186.06a12 7 0 000 35.67 12 7 0 000-35.67M138 144a1 1 0 000 44 1 1 0 000-44m176-3a1 1 0 000 44 1 1 0 000-44M131 165a1 1 0 010 14 1 1 0 010-14m175-2a1 1 0 010 14 1 1 0 010-14"/>
</svg>
