<svg xmlns="http://www.w3.org/2000/svg" viewBox="0 0 512 512">
	<g style="stroke:#000;stroke-width:8;stroke-linecap:round;stroke-linejoin:round">
		<path fill="#00f6eb" d="M95 90a55 50 0 10-50 87zm373 78a55 50 0 10-52-85z"/>
		<path fill="#00f6eb" d="M475 463V180a3 2 0 00-435 0v283z"/>
		<path fill="#FFF" d="M170 84a27 26 0 000 130 27 26 0 000-130m170-9a27 26 0 000 130 27 26 0 000-130M230 245l-1 37a1 1 0 0031 5 1 1 0 0030-5l-1-37zm30 42v-42"/>
		<path fill="#eecc8a" d="M373 397a2 9 40 0095-109 2 9 40 00-95 109"/>
		<path fill="#45b559" d="M330 424l5-1a12 12 0 009-11 19 19 0 1134 13 29 29 0 01-45 4z"/>
		<path fill="#e0760a" d="M80 338c16 2 35 7 44 13s8 22 2 30-15 8-24 3l-22-16zm358 27s-33 6-44 12-9 21-3 30 15 7 25 4 16-10 22-17zM313 235a2 1 0 00-111 0 5 2 0 00111 0"/>
	</g>
	<path d="M257 186a12 7 0 000 36 12 7 0 000-36M138 144a1 1 0 000 44 1 1 0 000-44m176-3a1 1 0 000 44 1 1 0 000-44"/>
</svg>