<svg xmlns="http://www.w3.org/2000/svg" width="512" height="512" xml:space="preserve"><g transform="translate(-7.2 36.4) scale(1.2348)"><path fill="none" stroke="#000" stroke-width="6" stroke-linecap="round" stroke-linejoin="round" stroke-miterlimit="10" d="M41 74.5a12.6 12.6 0 0 1 12.7-12.6c4 0 7.7 2 10 5A104 104 0 0 1 83.6 43c-3.8-3.6-10-6.3-19.6-7.6-31-4.2-46.9 11.1-50.5 31.7a39.8 39.8 0 0 0 31 46.7 186.6 186.6 0 0 1 9-26.8A12.6 12.6 0 0 1 41 74.5z"/><path d="M53.7 61.9a12.6 12.6 0 0 0-.3 25.2 170 170 0 0 1 8.2-16.7l2-3.6a12.6 12.6 0 0 0-10-5z"/><path fill="none" stroke="#000" stroke-width="6" stroke-linecap="round" stroke-linejoin="round" stroke-miterlimit="10" d="M414 59.1c-3.6-20.6-19.5-35.9-50.6-31.7-10.7 1.4-17.1 4.6-20.8 9A140.6 140.6 0 0 1 362 56.7l.9 1.2c2.3-3.1 6-5.1 10-5.1a12.6 12.6 0 0 1 2.6 25 141.2 141.2 0 0 1 10.5 27 39.7 39.7 0 0 0 28-45.8z"/><path d="M385.5 65.5a12.6 12.6 0 0 0-12.6-12.6c-4.2 0-7.8 2-10.1 5a137 137 0 0 1 12.6 20 12.6 12.6 0 0 0 10-12.4z"/><path fill="none" stroke="#000" stroke-width="6" stroke-linecap="round" stroke-linejoin="round" stroke-miterlimit="10" d="m362.8 58-.9-1.2a140.6 140.6 0 0 0-19.3-20.5C312.8 10.6 274.1 1.5 218 3.2c-48.7 1.5-100.5 9.9-134.3 39.9a104 104 0 0 0-20 23.7 106.1 106.1 0 0 0-2 3.7A170 170 0 0 0 53.3 87a186.6 186.6 0 0 0-9 26.8A268.7 268.7 0 0 0 37 180c0 45.2 8.9 67.6 8.3 111 0 2.8 0 5.7-.2 8.7-.2 5.2.8 42.2.7 47.4 0 0 351.9 3.7 352.7-1l-1.5-36.5a990.9 990.9 0 0 1-1.3-22.7c-1.7-37.4 0-54.3-.5-97-.4-36.2-3.2-63.1-9.3-85a141.6 141.6 0 0 0-10.5-27.1c-3.6-7-7.8-13.6-12.6-20z" style="fill:#00f6eb;fill-opacity:1"/><ellipse fill="none" stroke="#000" stroke-width="6" stroke-linecap="round" stroke-linejoin="round" stroke-miterlimit="10" cx="144.1" cy="91.6" rx="54.9" ry="53.1" style="fill-opacity:1;fill:#fff"/><ellipse fill="none" stroke="#000" stroke-width="6" stroke-linecap="round" stroke-linejoin="round" stroke-miterlimit="10" cx="281.8" cy="85.3" rx="54.9" ry="53.1" style="fill-opacity:1;fill:#fff"/><path fill="none" stroke="#000" stroke-width="6" stroke-linecap="round" stroke-linejoin="round" stroke-miterlimit="10" d="M215 170.3c-10.8.2-12.4 5-21.7 6.7-.4 5.7-.8 13.6-1.2 22.9-.9 20.1 24.6 15.6 24.6 3.6v-33.1H215zm1.7 33.2c0 12 25.5 16.5 24.6-3.6-.4-9.6-.8-17.6-1.2-23.4-11.7-.5-13-5.8-23.4-6.1v33z" style="fill:#fff;fill-opacity:1"/><path fill="none" stroke="#000" stroke-width="6" stroke-linecap="round" stroke-linejoin="round" stroke-miterlimit="10" d="M254.7 150.3a27.6 27.6 0 0 0-16.5-8.5c-3.6 5.4-12.7 9.2-23.4 9.2-10.3 0-19.1-3.5-23-8.6a28.1 28.1 0 0 0-17.2 9.3c-8.6 10-4.4 24.9 7.1 25.7 5 .3 8.7.1 11.6-.4 9.3-1.7 10.9-6.5 21.7-6.7a33.4 33.4 0 0 1 1.7 0c10.3.4 11.7 5.7 23.4 6.2 2.3.1 5 0 8.3-.3 11.6-1.2 15.2-16.3 6.3-25.9z" style="fill:#e0760a;fill-opacity:1"/><path d="M214.8 151c10.7 0 19.8-3.8 23.4-9.2a9.2 9.2 0 0 0 1.8-5.2c0-8-11.3-14.4-25.2-14.4-14 0-25.2 6.4-25.2 14.4 0 2 .8 4 2.1 5.8 4 5 12.8 8.6 23 8.6z"/></g><path style="fill:#0ff;fill-opacity:0;fill-rule:evenodd;stroke-width:.842298" d="M232.7 745.5c-58.3-2.4-113-24.3-145.5-58.2-17.8-18.5-30.3-42-33.2-62-.7-4.6-.9-40.4-.8-121 .2-121.1-.1-134.7-3.8-172.3-4.7-48.3-5.7-77.9-3.7-105.2 2-27.6 7.6-52.7 16.6-75.7C86.5 89 132.9 59.4 223 48.5a870 870 0 0 1 97.5-.4c24.2 3.3 43.7 9 61.6 18 50.2 25.3 81.5 74.2 88.9 139.1 2 17.1 2.9 41.4 4.3 110.7a3132 3132 0 0 0 3.8 119.6c2.4 41 3.2 95.5 1.7 124.2a248.4 248.4 0 0 1-20.4 90c-24.4 51-79.2 84.3-154.3 93.7-8.4 1-55.9 3.4-57.7 2.8l-15.7-.7zm21-442.8c5.5-2 6.4-1.9 15 .4 10.9 3 19.2.2 23.8-8 2.1-3.8 2.1-4 1.9-20.1l-.3-16.4h3c4.8 0 12-3.1 15-6.5a20 20 0 0 0 5.3-15.1c0-10.6-4.3-17-17.4-26a38.4 38.4 0 0 1-11.1-10.4c-6.3-9-14.4-13-28.2-13.8-16.2-1-28.8 4.8-34.2 15.4-2 4-3.8 5.7-11.4 10.5-10.4 6.7-15.7 14.2-16.5 23.9-.5 5.5.4 9 4 14.7 3.5 5.6 9.2 8.2 17.6 8.2h6.1V275c0 20.5 1 23.3 9.8 27.4 5.3 2.5 10.7 2.6 17.6.3zm-64.5-86a69.2 69.2 0 0 0 53.2-67.5A68.7 68.7 0 0 0 200.7 86c-10.8-5.1-14.9-6-30.3-5.9-14 0-17.6.7-28.5 5.2a75.8 75.8 0 0 0-30 24c-5 7.3-10.1 18.1-11.6 24.4-1.8 7.5-1.2 28 1 35a72.4 72.4 0 0 0 34.3 41.4 58.5 58.5 0 0 0 34.9 8.6c8.7 0 12.2-.3 18.7-2zm173.7-8a75 75 0 0 0 47-46.7c2.4-7 2.6-8 2.5-20.4 0-11.5-.2-13.9-2-18.7-7.1-20.6-21-36-40-44.9a54.3 54.3 0 0 0-29.5-5.5c-15.6 0-20.2 1-32.7 7.1a71 71 0 0 0-36.9 42.4 81.6 81.6 0 0 0-1.5 32.4 72.2 72.2 0 0 0 20.4 37c8.5 8 23 16.1 34 19 1.5.3 9.5.5 18 .4 13-.3 16-.6 20.7-2.2z"/><path style="fill:#0ff;fill-opacity:0;fill-rule:evenodd;stroke-width:.842298" d="M232.7 745.5c-58.3-2.4-113-24.3-145.5-58.2-17.8-18.5-30.4-42.2-33.2-62-.6-4.5-.8-43.5-.8-120.4.2-122.6-.1-135.2-4.1-176.7a648.4 648.4 0 0 1-4.3-71.3c0-34.9 3-59.3 10.7-86C77.3 95 125 60.2 223 48.7c16-1.9 84.8-2.2 97.6-.5 29.5 4 53.3 12 73.6 24.6 33.6 20.9 58 54.4 69.7 96 8.2 28.8 9.4 44.4 11.5 147.2 1.3 62.3 2.3 92.7 3.8 118.7 2.7 44.5 3.1 119 .9 139.1a248.7 248.7 0 0 1-19.6 76c-24.5 51.1-79.4 84.5-154.5 93.7-8.6 1-53.7 3.3-57 2.8l-16.2-.7zm21-442.8c5.5-2 6.4-1.9 15 .4 10.9 3 19.2.2 23.8-8 2.1-3.8 2.1-4 1.9-20.1l-.3-16.4h3c4.8 0 12-3.1 15-6.5a20 20 0 0 0 5.3-15.1c0-10.2-4.4-17.1-16-25.1a38 38 0 0 1-13-12c-6.3-8.6-14-12.3-27.7-13-16.1-1-28.8 4.7-34.2 15.3-2 4-3.8 5.7-11.4 10.5-10.4 6.7-15.7 14.2-16.5 23.9-.5 5.5.4 9 4 14.7 3.5 5.6 9.2 8.2 17.6 8.2h6.1V275c0 20.5 1 23.3 9.8 27.4 5.3 2.5 10.7 2.6 17.6.3zm-64.5-86a69.2 69.2 0 0 0 53.2-67.5A68.7 68.7 0 0 0 200.7 86c-10.8-5.1-14.9-6-30.3-5.9-14 0-17.6.7-28.5 5.2a75.8 75.8 0 0 0-30 24c-5 7.3-10.1 18.1-11.6 24.4-1.8 7.5-1.2 28 1 35a72.4 72.4 0 0 0 34.3 41.4 58.5 58.5 0 0 0 34.9 8.6c8.7 0 12.2-.3 18.7-2zm166.4-6.4a73.6 73.6 0 0 0 46.2-31.7 65 65 0 0 0 10.8-42A71.2 71.2 0 0 0 370.4 78a54.3 54.3 0 0 0-29.6-5.5c-15.6 0-20.1 1-32.6 7.1a71.4 71.4 0 0 0-37 42.5c-1.6 4.7-1.9 7.3-2 18.2 0 14.6.8 18.7 5.6 29.1a69.1 69.1 0 0 0 26.4 30.5 95 95 0 0 0 23 10.4c4 1 24.7 1 31.4 0z"/><path fill="none" stroke="#000" stroke-width="7.3" stroke-linecap="round" stroke-linejoin="round" stroke-miterlimit="10" d="M79.5 337.8c16.2 2.4 35 7.2 44.9 13.2 8.9 5.6 7.7 21.8 1.4 29.8-6.7 8.5-14.5 8-24 3.6a97 97 0 0 1-21.4-16.6l-.7-19a404.9 404.9 0 0 1-.2-11z" style="fill:#e0760a;fill-opacity:1"/><path fill="none" stroke="#000" stroke-width="7.3" stroke-linecap="round" stroke-linejoin="round" stroke-miterlimit="10" d="M128.3 376.6c-4-3-6.9-6.1-14.3-10"/><path style="fill:#fff;fill-opacity:0;fill-rule:evenodd;stroke-width:.842298" d="M239 294.6c-4-2-5.2-6.9-4.6-17.2.8-15.9 1.3-19.7 2.4-19.7.6 0 4-1.3 7.4-2.8 3.5-1.6 7.5-3.2 9-3.5l2.8-.6v19.4c0 16.5-.2 19.7-1.4 21.4-2.8 4-11 5.5-15.7 3z"/><path style="fill:#fff;fill-opacity:0;fill-rule:evenodd;stroke-width:.842298" d="M239 294.6c-4-2-5.2-6.9-4.6-17.2.8-15.9 1.3-19.7 2.4-19.7.6 0 4-1.3 7.4-2.8 3.5-1.6 7.5-3.2 9-3.5l2.8-.6v19.4c0 16.5-.2 19.7-1.4 21.4-2.8 4-11 5.5-15.7 3z"/><path style="fill:#fff;fill-opacity:0;fill-rule:evenodd;stroke-width:.842298" d="M238.7 302.3c-5-1.8-7.5-4-9.7-8.1-2-3.7-2-4.3-1.6-19.6l.5-15.8-7-.4c-12.1-.6-18.8-5.6-21-15.6-2.7-13.5 7.9-27.7 24.5-32.6 3.4-1 3.6-1.3 3.1-3.5-.8-3.8 2.4-9.5 7-12.6 12.7-8.3 36-8.2 47 .2 5.1 4 7 6.8 7 10.6 0 3.4 0 3.4 4.7 4.9 6.7 2 11.1 4.9 15.8 9.8a24.1 24.1 0 0 1 7.5 17.3c0 6.4-2.2 11.7-6.5 15.5-3.3 2.9-10 5.3-14.8 5.3-2.3 0-2.8.3-2.4 1.5.3.8.6 8.2.7 16.3.3 17.2-.4 19.5-7 24.5-3.6 2.8-3.8 2.8-11.1 2.5-6.8-.2-7.7-.5-11.4-3l-4-2.9-1.8 1.7c-4.3 4-14 6-19.6 4zm12.7-7c5.4-2.5 5.4-2.7 5.4-25.1v-20.3l-3.2.6c-1.7.3-6 1.9-9.6 3.5a50.8 50.8 0 0 1-7.4 2.9c-1.7 0-2 1.7-2.7 15.4-1 15.6-.4 19 3.5 22.3 3.1 2.6 9.4 3 14 .8zm31 .1c4.6-2.4 5.3-5.6 4.6-22.4-.7-15.2-.9-16-4.3-16.1-1 0-5-1.4-8.9-3-11.1-4.6-10.2-6.1-10.2 16.4 0 21.2.1 21.6 5.4 24.8 3.3 2 9.8 2.1 13.4.3zm-47.7-44.8c1.7-.7 6-2.4 9.4-4 5.7-2.5 7.2-2.8 14.4-2.8 7.5 0 8.7.2 16.1 3.3 7.3 3 9 3.3 17 3.6 11 .4 13.8-.7 16.8-6.5 5.2-10-2.4-23.6-15.5-27.7l-4.4-1.4-4 3c-13.5 10.4-37.4 10.6-52.7.4l-4-2.7-4.4 1.6c-10.1 3.6-17.5 12.3-17.5 20.8 0 6.7 4.3 12.5 10 13.7 4.2.8 15 0 18.8-1.3z"/><path style="fill:#fff;fill-opacity:0;fill-rule:evenodd;stroke-width:.842298" d="M269.7 294.3c-5-2.6-5.2-3.7-5.2-24 0-11.5.3-18.5.8-18.5a60 60 0 0 1 7.3 2.6 80 80 0 0 0 9.6 3.2l3 .6.8 14c.4 7.8.5 15.2.2 16.5-.3 1.3-1.7 3.4-3 4.8-2 2-3.2 2.4-6.6 2.3a18 18 0 0 1-7-1.5z"/><path style="fill:#fff;fill-opacity:0;fill-rule:evenodd;stroke-width:.842298" d="M269.7 294.3c-5-2.6-5.2-3.7-5.2-24 0-11.5.3-18.5.8-18.5a60 60 0 0 1 7.3 2.6 80 80 0 0 0 9.6 3.2l3 .6.8 14c.4 7.8.5 15.2.2 16.5-.3 1.3-1.7 3.4-3 4.8-2 2-3.2 2.4-6.6 2.3a18 18 0 0 1-7-1.5z"/><path style="fill:#fff;fill-opacity:0;fill-rule:evenodd;stroke-width:.842298" d="M238.7 302.3c-5-1.8-7.5-4-9.7-8.1-2-3.7-2-4.3-1.6-19.6l.5-15.8-7-.4c-12.1-.6-18.8-5.6-21-15.6-2.7-13.5 7.9-27.7 24.5-32.6 3.4-1 3.6-1.3 3.1-3.5-.8-3.8 2.4-9.5 7-12.6 12.7-8.3 36-8.2 47 .2 5.1 4 7 6.8 7 10.6 0 3.4 0 3.4 4.7 4.9 6.7 2 11.1 4.9 15.8 9.8a24.1 24.1 0 0 1 7.5 17.3c0 6.4-2.2 11.7-6.5 15.5-3.3 2.9-10 5.3-14.8 5.3-2.3 0-2.8.3-2.4 1.5.3.8.6 8.2.7 16.3.3 17.2-.4 19.5-7 24.5-3.6 2.8-3.8 2.8-11.1 2.5-6.8-.2-7.7-.5-11.4-3l-4-2.9-1.8 1.7c-4.3 4-14 6-19.6 4zm12.7-7c5.4-2.5 5.4-2.7 5.4-25.1v-20.3l-3.2.6c-1.7.3-6 1.9-9.6 3.5a50.8 50.8 0 0 1-7.4 2.9c-1.7 0-2 1.7-2.7 15.4-1 15.6-.4 19 3.5 22.3 3.1 2.6 9.4 3 14 .8zm31 .1c4.6-2.4 5.3-5.6 4.6-22.4-.7-15.2-.9-16-4.3-16.1-1 0-5-1.4-8.9-3-11.1-4.6-10.2-6.1-10.2 16.4 0 21.2.1 21.6 5.4 24.8 3.3 2 9.8 2.1 13.4.3zm-47.7-44.8c1.7-.7 6-2.4 9.4-4 5.7-2.5 7.2-2.8 14.4-2.8 7.5 0 8.7.2 16.1 3.3 7.3 3 9 3.3 17 3.6 11 .4 13.8-.7 16.8-6.5 5.2-10-2.4-23.6-15.5-27.7l-4.4-1.4-4 3c-13.5 10.4-37.4 10.6-52.7.4l-4-2.7-4.4 1.6c-10.1 3.6-17.5 12.3-17.5 20.8 0 6.7 4.3 12.5 10 13.7 4.2.8 15 0 18.8-1.3z"/><path style="fill:#fff;fill-opacity:0;fill-rule:evenodd;stroke-width:.842298" d="M239 294.6c-4-2-5.2-6.9-4.6-17.2.8-15.9 1.3-19.7 2.4-19.7.6 0 4-1.3 7.4-2.8 3.5-1.6 7.5-3.2 9-3.5l2.8-.6v19.4c0 16.5-.2 19.7-1.4 21.4-2.8 4-11 5.5-15.7 3z"/><ellipse style="fill:#000;fill-rule:evenodd;stroke:#000;stroke-width:0" cx="138.4" cy="165.8" rx="21.9" ry="21.7"/><ellipse style="fill:#000;fill-rule:evenodd;stroke:#000;stroke-width:0" cx="314.2" cy="162.6" rx="21.9" ry="21.7"/><ellipse style="fill:#fff;fill-rule:evenodd;stroke:#000;stroke-width:0" cx="131" cy="172.4" rx="6.8" ry="6.9"/><ellipse style="fill:#fff;fill-rule:evenodd;stroke:#000;stroke-width:0" cx="306.4" cy="170.1" rx="7" ry="6.9"/><path style="fill:#00f6eb;fill-opacity:1;fill-rule:evenodd;stroke:#000;stroke-width:0" d="M469.8 154.2a215.2 215.2 0 0 0-5-13 302.2 302.2 0 0 1-2.7-6.3l2.1-1.4c6.2-4 9.7-12.1 8.4-19.4a19.5 19.5 0 0 0-20.9-16.2 21 21 0 0 0-9 3l-1.5 1-4.1-4.9a222.5 222.5 0 0 0-9.7-10.5l-5.6-5.5 1.8-1.2a50 50 0 0 1 19-5.8c5.5-.7 15.8-.8 20-.2a41.1 41.1 0 0 1 33.5 23.6 47.5 47.5 0 0 1 4.5 23.2 44 44 0 0 1-23.8 38 41.7 41.7 0 0 1-4.5 2.2c-.2 0-1.3-3-2.6-6.6zM41.4 171a47.4 47.4 0 0 1-21-16.7 47.5 47.5 0 0 1 4.4-57.8c8.6-9 19.7-13.1 35-13.1 10 0 20.6 1.9 26.9 4.8l3.2 1.5-3.7 3.8A147.8 147.8 0 0 0 73.3 109l-2.6 3.7-1.5-1a20.4 20.4 0 0 0-19.7-.3 19.2 19.2 0 0 0-9.7 16.9c0 8.6 4.3 14.8 13.3 18.7 0 0-.5 1.8-1.3 3.8a285.3 285.3 0 0 0-6.2 19c-.6 2.5-.8 2.5-4.2 1.1z"/><path style="fill:#eecc8a;fill-opacity:1;stroke:#000;stroke-width:5.4477;stroke-miterlimit:4;stroke-dasharray:none;stroke-opacity:1" d="M378.2 399a6 6 0 0 1-4.6-1.8 5.6 5.6 0 0 1-.5-.6c-2-2.9-1.8-7.4.9-14 2-5.3 5.6-11.8 10.5-19.4 3-4.6 6-9 9.3-13.4a352.7 352.7 0 0 1 15.6-19.7 270.4 270.4 0 0 1 34.9-34.6c12.1-9.6 19.5-12.2 23.3-8 3.7 4 1.7 12.5-6.4 26.5-7 12-17.4 26.3-29.5 40.5a338.6 338.6 0 0 1-17 18.4 237.7 237.7 0 0 1-11.5 11 99.8 99.8 0 0 1-17 12.5c-1.5.8-4.8 2.6-8 2.7z"/><g style="fill:#e0760a;fill-opacity:1" fill="none" stroke="#000" stroke-width="6" stroke-linecap="round" stroke-linejoin="round" stroke-miterlimit="10"><path d="M369.5 262a112.3 112.3 0 0 0-37 10.7c-7.3 4.5-6.4 17.6-1.1 24.1 5.5 6.9 11.9 6.5 19.7 3a79 79 0 0 0 17.6-13.6 1578 1578 0 0 1 .8-24.2z" style="fill:#e0760a;fill-opacity:1" transform="translate(-16.3 36.6) scale(1.2348)"/><path d="M329.3 293.4c3.3-2.4 5.6-5 11.7-8" style="fill:#e0760a;fill-opacity:1" transform="translate(-16.3 36.6) scale(1.2348)"/></g><path style="fill:#45b559;fill-opacity:1;stroke:#000;stroke-width:6;stroke-miterlimit:4;stroke-dasharray:none;stroke-opacity:1" d="M353.6 438.3a28.9 28.9 0 0 1-20.9-9c-2-2-1-5.6 1.8-6.2 1.3-.3 2.6-.8 3.8-1.5a13.1 13.1 0 0 0 6-9.9v-.2a19.5 19.5 0 0 1 9-14.9 18 18 0 0 1 23 3.5l.4.4 2 3a20.5 20.5 0 0 1-1 21.6 30 30 0 0 1-9 8.8 28.5 28.5 0 0 1-15.1 4.4z"/></svg>