<svg xmlns="http://www.w3.org/2000/svg" width="512" height="512" xml:space="preserve">
    <g transform="translate(-7.183 36.387) scale(1.2348)">
        <path fill="none" stroke="#000" stroke-width="6" stroke-linecap="round" stroke-linejoin="round" stroke-miterlimit="10" d="M41.071 74.477c0-6.969 5.641-12.618 12.6-12.618 4.081 0 7.697 1.951 10 4.964 5.569-9.111 12.283-16.97 19.913-23.729-3.78-3.658-9.922-6.33-19.563-7.625-31.05-4.174-46.917 11.166-50.542 31.725-3.498 19.838 7.171 41.143 31.004 46.682 2.46-9.685 5.474-18.569 8.95-26.793-6.848-.129-12.362-5.718-12.362-12.606z"/>
        <path d="M53.671 61.859c-6.959 0-12.6 5.649-12.6 12.618 0 6.888 5.514 12.477 12.362 12.605a170.023 170.023 0 0 1 8.112-16.638c.687-1.231 1.4-2.434 2.126-3.622-2.303-3.012-5.92-4.963-10-4.963z"/>
        <path fill="none" stroke="#000" stroke-width="6" stroke-linecap="round" stroke-linejoin="round" stroke-miterlimit="10" d="M413.979 59.094c-3.625-20.56-19.492-35.899-50.541-31.725-10.765 1.447-17.166 4.61-20.789 8.945 6.867 5.93 13.257 12.745 19.272 20.518.292.377.57.758.857 1.136 2.296-3.095 5.963-5.109 10.108-5.109 6.959 0 12.6 5.649 12.6 12.618 0 6.109-4.335 11.202-10.093 12.366 4.277 8.283 7.745 17.199 10.521 27.142 21.763-6.551 31.416-26.89 28.065-45.891z"/>
        <path d="M385.486 65.477c0-6.969-5.641-12.618-12.6-12.618-4.146 0-7.812 2.014-10.108 5.109 4.815 6.345 9.007 12.886 12.615 19.875 5.758-1.164 10.093-6.257 10.093-12.366z"/>
        <path fill="none" stroke="#000" stroke-width="6" stroke-linecap="round" stroke-linejoin="round" stroke-miterlimit="10" d="M362.778 57.968c-.287-.378-.565-.759-.857-1.136-6.016-7.773-12.405-14.588-19.272-20.518-29.797-25.728-68.582-34.79-124.728-33.123-48.682 1.447-100.473 9.906-134.337 39.903-7.63 6.758-14.343 14.617-19.913 23.729a106.137 106.137 0 0 0-2.126 3.622 169.913 169.913 0 0 0-8.112 16.638c-3.476 8.224-6.49 17.108-8.95 26.793-4.767 18.77-7.463 40.533-7.462 66.257.002 45.133 8.866 67.528 8.332 110.879-.035 2.846-.11 5.782-.231 8.821-.204 5.119.793 42.186.633 47.312 0 0 351.918 3.7 352.774-.944-.103-1.496-1.383-34.939-1.489-36.466a990.863 990.863 0 0 1-1.339-22.763c-1.733-37.343.064-54.317-.479-96.937-.463-36.271-3.195-63.161-9.306-85.047-2.776-9.942-6.244-18.858-10.521-27.142-3.61-6.992-7.801-13.534-12.617-19.878z"/>
        <ellipse fill="none" stroke="#000" stroke-width="6" stroke-linecap="round" stroke-linejoin="round" stroke-miterlimit="10" cx="144.121" cy="91.595" rx="54.9" ry="53.1"/>
        <circle cx="113.027" cy="94.796" r="18.9"/>
        <circle fill="#fff" cx="144.464" cy="92.014" r="5.4"/>
        <ellipse fill="none" stroke="#000" stroke-width="6" stroke-linecap="round" stroke-linejoin="round" stroke-miterlimit="10" cx="281.821" cy="85.294" rx="54.9" ry="53.1"/>
        <path fill="none" stroke="#000" stroke-width="6" stroke-linecap="round" stroke-linejoin="round" stroke-miterlimit="10" d="M214.968 170.343c-10.784.188-12.401 4.999-21.685 6.657-.328 5.727-.745 13.566-1.163 22.896-.9 20.1 24.6 15.6 24.6 3.6v-33.132c-.56-.021-1.137-.031-1.752-.021zM216.72 203.495c0 12 25.5 16.5 24.6-3.6-.429-9.582-.857-17.59-1.189-23.353-11.689-.533-13.115-5.813-23.411-6.179v33.132z"/>
        <path fill="none" stroke="#000" stroke-width="6" stroke-linecap="round" stroke-linejoin="round" stroke-miterlimit="10" d="M254.674 150.297c-4.354-4.685-9.521-7.238-16.425-8.471-3.664 5.366-12.791 9.169-23.479 9.169-10.278 0-19.112-3.518-23.034-8.56-7.391 1.417-12.753 4.185-17.15 9.26-8.627 9.959-4.437 24.891 7.156 25.695 4.957.344 8.624.131 11.541-.391 9.284-1.658 10.901-6.469 21.685-6.657a33.4 33.4 0 0 1 1.752.02c10.295.366 11.721 5.646 23.411 6.179 2.312.105 5.024.026 8.289-.316 11.559-1.207 15.225-16.276 6.254-25.928z"/>
        <path d="M214.771 150.995c10.688 0 19.814-3.803 23.479-9.169 1.107-1.622 1.722-3.385 1.722-5.231 0-7.953-11.281-14.4-25.2-14.4-13.917 0-25.2 6.447-25.2 14.4 0 2.08.778 4.054 2.166 5.84 3.92 5.042 12.755 8.56 23.033 8.56z"/>
        <circle cx="252.249" cy="90.196" r="18.9"/>
    </g>
    <path style="fill:#0ff;fill-opacity:0;fill-rule:evenodd;stroke-width:.842298" d="M232.704 745.464c-58.297-2.349-113.057-24.23-145.518-58.146-17.737-18.534-30.288-42.002-33.177-62.04-.668-4.63-.904-40.41-.798-120.939.159-121.173-.14-134.735-3.797-172.34-4.7-48.317-5.74-77.888-3.7-105.182 2.06-27.576 7.562-52.772 16.542-75.762C86.508 88.967 132.91 59.363 222.949 48.537c15.779-1.897 84.544-2.217 97.548-.454 24.232 3.286 43.696 8.974 61.63 18.01 50.181 25.282 81.435 74.22 88.853 139.13 1.955 17.105 2.902 41.375 4.319 110.659 1.272 62.214 2.222 91.772 3.842 119.601 2.384 40.933 3.116 95.484 1.667 124.18-1.686 33.373-9.193 66.438-20.43 89.976-24.417 51.154-79.152 84.407-154.301 93.744-8.367 1.04-55.854 3.362-57.68 2.821-.234-.068-7.295-.402-15.693-.74zm20.989-442.8c5.553-1.87 6.401-1.844 15.014.477 10.892 2.934 19.201.113 23.798-8.079 2.088-3.722 2.116-4.028 1.854-20.108l-.265-16.328h2.99c4.823 0 11.979-3.13 14.985-6.554 3.927-4.472 5.277-8.318 5.295-15.076.028-10.597-4.285-17.055-17.377-26.022-5.536-3.792-8.433-6.486-11.11-10.336-6.332-9.102-14.394-13.065-28.181-13.85-16.184-.923-28.83 4.786-34.18 15.43-2.032 4.043-3.847 5.722-11.372 10.519-10.44 6.654-15.695 14.212-16.567 23.827-.505 5.57.468 9.123 4.046 14.765 3.501 5.52 9.125 8.125 17.57 8.137l6.15.008v15.565c0 20.496.975 23.235 9.754 27.375 5.313 2.505 10.676 2.581 17.596.25zm-64.51-85.938c31.831-8.075 53.287-35.279 53.255-67.523-.012-11.272-1.63-18.926-5.88-27.788-8.161-17.02-18.403-27.136-35.827-35.39-10.875-5.152-14.919-5.94-30.372-5.919-13.968.019-17.574.683-28.416 5.235-11.23 4.715-23.79 14.727-30.1 23.995-4.937 7.25-10.087 18.111-11.567 24.397-1.753 7.442-1.191 28.01.956 34.98 5.306 17.224 18.177 32.748 34.349 41.428 13.24 7.107 18.396 8.366 34.88 8.518 8.733.081 12.185-.275 18.721-1.933zm173.725-8.103c22.27-7.62 39.106-24.326 46.975-46.615 2.447-6.93 2.574-7.943 2.558-20.44-.014-11.473-.262-13.849-1.947-18.66-7.198-20.55-21.063-36.072-40.084-44.875-10.419-4.822-14.54-5.599-29.556-5.572-15.596.029-20.177 1.033-32.657 7.156-17.843 8.755-30.458 23.243-36.871 42.345-2.52 7.504-3.214 22.6-1.492 32.433 2.236 12.77 10.365 27.537 20.342 36.956 8.51 8.033 23.115 16.204 33.985 19.012 1.484.384 9.568.573 17.966.422 13.096-.237 16.052-.544 20.781-2.162z"/>
    <path style="fill:#0ff;fill-opacity:0;fill-rule:evenodd;stroke-width:.842298" d="M232.704 745.464c-58.297-2.349-113.057-24.23-145.518-58.146-17.77-18.568-30.394-42.201-33.139-62.04-.615-4.445-.873-43.445-.797-120.371.12-122.634-.176-135.178-4.174-176.726-3.385-35.182-4.257-49.79-4.253-71.237.008-34.93 3.039-59.326 10.684-85.955 21.83-76.035 69.517-110.9 167.442-122.42 15.924-1.873 84.787-2.216 97.548-.486 29.474 3.997 53.253 11.947 73.637 24.619 33.615 20.897 57.954 54.404 69.687 95.938 8.166 28.904 9.375 44.426 11.478 147.242 1.274 62.295 2.249 92.667 3.812 118.753 2.663 44.452 3.129 118.97.87 139.11-3.269 29.13-10.33 56.47-19.602 75.894-24.435 51.19-79.408 84.555-154.452 93.746-8.655 1.06-53.779 3.283-57.107 2.814-.466-.066-7.718-.397-16.116-.735zm20.989-442.8c5.553-1.87 6.401-1.844 15.014.477 10.892 2.934 19.201.113 23.798-8.079 2.088-3.722 2.116-4.028 1.854-20.108l-.265-16.328h2.99c4.823 0 11.979-3.13 14.985-6.554 3.927-4.472 5.277-8.318 5.295-15.076.026-10.187-4.396-17.15-15.934-25.09-8.093-5.57-8.998-6.403-13.123-12.088-6.165-8.494-13.99-12.18-27.611-13.009-16.12-.98-28.82 4.746-34.18 15.409-2.032 4.043-3.847 5.722-11.372 10.519-10.44 6.654-15.695 14.212-16.567 23.827-.505 5.57.468 9.123 4.046 14.765 3.501 5.52 9.125 8.125 17.57 8.137l6.15.008v15.565c0 20.496.975 23.235 9.754 27.375 5.313 2.505 10.676 2.581 17.596.25zm-64.51-85.938c31.831-8.075 53.287-35.279 53.255-67.523-.012-11.272-1.63-18.926-5.88-27.788-8.161-17.02-18.403-27.136-35.827-35.39-10.875-5.152-14.919-5.94-30.372-5.919-13.968.019-17.574.683-28.416 5.235-11.23 4.715-23.79 14.727-30.1 23.995-4.937 7.25-10.087 18.111-11.567 24.397-1.753 7.442-1.191 28.01.956 34.98 5.306 17.224 18.177 32.748 34.349 41.428 13.24 7.107 18.396 8.366 34.88 8.518 8.733.081 12.185-.275 18.721-1.933zm166.38-6.474c16.552-2.393 35.667-15.48 46.218-31.643 8.459-12.957 11.798-25.856 10.853-41.92-1.439-24.452-17.986-47.439-42.224-58.656-10.419-4.822-14.54-5.599-29.556-5.572-15.596.029-20.177 1.033-32.657 7.156-17.85 8.759-30.199 22.936-36.966 42.442-1.637 4.72-1.923 7.347-1.983 18.238-.08 14.568.707 18.72 5.526 29.131 6.075 13.127 14.2 22.496 26.434 30.483 6.11 3.989 17.274 9.046 22.953 10.398 3.983.948 24.71.91 31.402-.057z"/>
    <path style="fill:#00f6eb;fill-opacity:1;fill-rule:evenodd;stroke-width:.840981" d="M52.127 376.806c.421-6.279-4.199-43.203-5.32-54.597-1.12-11.394-3.69-34.045-4.247-42.648-1.255-19.364.29-54.078 2.542-69.182 3.308-22.192 6.856-38.96 13.759-57.935 7.11-19.544 17.664-35.698 27.967-48.45 23.657-29.28 59.187-45.867 112.365-54.793 24.348-4.087 30.19-5.794 75.464-5.795 37.54 0 52.92 3.292 61.097 4.648 29.604 4.908 45.528 12.101 65.749 25.622 32.633 21.82 52.428 52.942 63.75 94.052 6.167 22.39 10.862 39.244 12.104 94.579.332 14.795-.408 31.789.036 53.384.353 17.212-.401 36.436-.092 55.03.785 47.228 3.7 89.908 3.7 89.908l-72.67 2.347-113.221-.568L52.9 461.333l-1.189-41.698c-.59-20.68.414-42.83.414-42.83zm201.502-75.096c0-.6 3.108-.262 6.05-3.804 1.723-2.075 3.578 3.283 7.344 3.954 5.221.932 14.144 1.804 17.435.107 3.19-1.644 6.902-5.317 8.727-8.633 1.198-2.176 1.37-4.937 1.157-18.631l-1.092-16.723 6.08-.346c7.387-.421 12.312-4.72 15.414-10.218.747-.932 2.526-5.397 2.56-10.697-.64-7.808-4.455-14.506-7.819-17.994-4.322-4.483-9.944-6.913-13.597-8.936l-7.231-1.613c2.224-9.322-5.985-14.274-11.339-17.279-13.92-5.4-28.537-4.819-39.634.588-4.488 2.187-7.393 4.502-10.308 9.962-1.377 2.58.337 7.693.337 7.693l-7.092 1.436c-3.024.612-11.515 7.29-11.515 7.29-4.494 3.29-12.852 15.423-8.905 27.592 2.974 9.17 9.108 12.692 19.464 13.4l7.925.568-1.089 17.6c-1.421 12.906 2.36 18.648 2.36 18.648s3.478 6.783 11.356 7.444c3.292.276 8.8.214 13.412-1.408zm-71.43-84.107c27.498-4.325 49.21-22.932 57.682-49.432 2.908-9.098 2.721-25.501.312-35-3.533-13.925-12.707-28.205-23.174-36.724-7.075-5.758-19.865-12.164-28.092-14.262-9.1-2.32-27.548-2.19-36.59.116-14.082 3.59-29.73 13.663-38.061 24.605-5.387 7.075-11.434 19.19-13.341 26.622-1.822 7.102-1.272 27.844.935 35.001 6.526 21.169 24.5 39.586 46.854 46.884 8.738 2.852 23.234 3.8 33.475 2.19zm177.845-8.898c25.058-6.418 47.111-29.916 51.648-55.034 5.6-31.003-11.336-60.38-41.019-74.91-11.12-5.443-15.23-6.801-29.429-6.795-13.789.006-19.063 1.634-29.59 6.498-9.595 4.434-16.916 8.532-23.964 15.93-11.715 12.298-17.782 25.885-18.658 41.78-1.08 19.618 4.002 34.992 16.503 49.923 9.47 11.312 29.08 22.364 42.561 23.987 7.709.928 26.027.137 31.948-1.38z"/>
    <path fill="none" stroke="#000" stroke-width="7.344" stroke-linecap="round" stroke-linejoin="round" stroke-miterlimit="10" d="M79.452 337.843c16.213 2.32 35.094 7.114 44.92 13.21 8.891 5.518 7.724 21.76 1.398 29.795-6.676 8.485-14.51 8.03-23.97 3.592-6.208-2.914-13.685-9.408-21.41-16.681-.193-6.338-.41-12.68-.658-19.01a404.849 404.849 0 0 1-.28-10.906z"/>
    <path fill="none" stroke="#000" stroke-width="7.344" stroke-linecap="round" stroke-linejoin="round" stroke-miterlimit="10" d="M128.296 376.647c-4.04-2.963-6.893-6.17-14.28-10.01"/>
    <path style="fill:#e0760a;fill-opacity:1;fill-rule:evenodd;stroke-width:.842298" d="M217.013 251.738c-6.206-1.277-7.36-2.733-9.074-6.507-2.193-4.831-1.881-9.989.696-15.16 2.573-5.163 6.606-8.63 12.528-11.387 2.663-1.24 7.095-2.406 7.095-2.406s.748 1.164 4.38 3.383c12.153 7.423 29.066 8.966 43.31 3.96 3.841-1.35 8.413-4.76 12.676-7.96 1.386-1.041 7.934 1.682 14.512 7.322 3.722 3.19 6.848 9.216 6.767 14.597-.074 4.832-2.26 9.238-6.36 11.35-2.437 1.257-4.88 1.91-12.303 1.943-10.298.044-16.33-4.216-16.33-4.216-3.653-1.641-7.024-3.07-15.91-3.67-7.923.267-14.256 3.046-14.256 3.046-8.487 5.898-20.775 7.136-27.731 5.705z"/>
    <path style="fill:#fff;fill-opacity:0;fill-rule:evenodd;stroke-width:.842298" d="M238.91 294.61c-3.833-2.082-5.094-6.864-4.546-17.241.837-15.84 1.318-19.65 2.483-19.65.597 0 3.907-1.293 7.355-2.874 3.448-1.58 7.51-3.138 9.026-3.46l2.756-.586v19.388c0 16.552-.202 19.677-1.383 21.363-2.789 3.982-11.035 5.59-15.69 3.06z"/>
    <path style="fill:#fff;fill-opacity:0;fill-rule:evenodd;stroke-width:.842298" d="M238.91 294.61c-3.833-2.082-5.094-6.864-4.546-17.241.837-15.84 1.318-19.65 2.483-19.65.597 0 3.907-1.293 7.355-2.874 3.448-1.58 7.51-3.138 9.026-3.46l2.756-.586v19.388c0 16.552-.202 19.677-1.383 21.363-2.789 3.982-11.035 5.59-15.69 3.06z"/>
    <path style="fill:#fff;fill-opacity:0;fill-rule:evenodd;stroke-width:.842298" d="M238.645 302.285c-4.917-1.79-7.443-3.917-9.667-8.14-1.927-3.66-1.972-4.227-1.555-19.57l.43-15.802-6.963-.365c-12.126-.637-18.834-5.635-20.897-15.57-2.807-13.523 7.79-27.693 24.43-32.67 3.4-1.016 3.606-1.248 3.111-3.5-.826-3.76 2.367-9.44 7.051-12.543 12.643-8.374 35.893-8.27 46.944.212 5.091 3.907 6.92 6.71 6.92 10.606 0 3.316.036 3.353 4.762 4.833 6.635 2.078 11.133 4.883 15.758 9.828 5.202 5.562 7.446 10.733 7.494 17.276.047 6.38-2.193 11.754-6.462 15.502-3.3 2.897-10.059 5.338-14.785 5.338-2.344 0-2.788.272-2.414 1.484.251.816.563 8.164.693 16.329.274 17.21-.373 19.492-6.93 24.448-3.711 2.804-3.896 2.847-11.172 2.561-6.778-.266-7.732-.526-11.383-3.1l-3.985-2.81-1.82 1.709c-4.283 4.024-13.973 5.977-19.56 3.944zm12.787-6.93c5.342-2.534 5.4-2.81 5.4-25.195v-20.263l-3.18.582c-1.75.321-6.092 1.89-9.65 3.488-3.557 1.597-6.875 2.904-7.372 2.904-1.676 0-1.981 1.708-2.76 15.435-.888 15.64-.358 18.974 3.534 22.25 3.12 2.625 9.425 2.984 14.028.8zm30.957.055c4.617-2.388 5.267-5.577 4.574-22.422-.627-15.212-.852-16.062-4.26-16.12-.932-.015-4.922-1.357-8.866-2.981-11.16-4.597-10.218-6.105-10.218 16.367 0 21.256.077 21.611 5.4 24.857 3.274 1.997 9.804 2.142 13.37.299zm-47.7-44.855c1.682-.624 5.921-2.402 9.42-3.95 5.718-2.53 7.177-2.818 14.42-2.848 7.48-.031 8.637.206 16.117 3.296 7.272 3.005 8.926 3.361 16.964 3.652 10.9.394 13.814-.743 16.814-6.557 5.175-10.033-2.39-23.534-15.503-27.668l-4.406-1.388-3.937 3.005c-13.593 10.376-37.454 10.57-52.763.431l-4.057-2.687-4.336 1.528c-10.162 3.582-17.474 12.303-17.474 20.841 0 6.664 4.212 12.458 9.926 13.652 4.2.877 14.936.132 18.815-1.307z"/>
    <path style="fill:#fff;fill-opacity:0;fill-rule:evenodd;stroke-width:.842298" d="M269.657 294.291c-4.894-2.608-5.127-3.693-5.16-24.06-.019-11.426.284-18.45.796-18.45.454 0 3.751 1.163 7.326 2.583 3.575 1.42 7.88 2.867 9.565 3.215l3.065.633.75 14.082c.414 7.745.49 15.126.17 16.403-.32 1.277-1.68 3.417-3.02 4.757-2.024 2.025-3.126 2.43-6.53 2.4-2.251-.019-5.384-.723-6.962-1.563z"/>
    <path style="fill:#fff;fill-opacity:0;fill-rule:evenodd;stroke-width:.842298" d="M269.657 294.291c-4.894-2.608-5.127-3.693-5.16-24.06-.019-11.426.284-18.45.796-18.45.454 0 3.751 1.163 7.326 2.583 3.575 1.42 7.88 2.867 9.565 3.215l3.065.633.75 14.082c.414 7.745.49 15.126.17 16.403-.32 1.277-1.68 3.417-3.02 4.757-2.024 2.025-3.126 2.43-6.53 2.4-2.251-.019-5.384-.723-6.962-1.563z"/>
    <path style="fill:#fff;fill-opacity:0;fill-rule:evenodd;stroke-width:.842298" d="M238.645 302.285c-4.917-1.79-7.443-3.917-9.667-8.14-1.927-3.66-1.972-4.227-1.555-19.57l.43-15.802-6.963-.365c-12.126-.637-18.834-5.635-20.897-15.57-2.807-13.523 7.79-27.693 24.43-32.67 3.4-1.016 3.606-1.248 3.111-3.5-.826-3.76 2.367-9.44 7.051-12.543 12.643-8.374 35.893-8.27 46.944.212 5.091 3.907 6.92 6.71 6.92 10.606 0 3.316.036 3.353 4.762 4.833 6.635 2.078 11.133 4.883 15.758 9.828 5.202 5.562 7.446 10.733 7.494 17.276.047 6.38-2.193 11.754-6.462 15.502-3.3 2.897-10.059 5.338-14.785 5.338-2.344 0-2.788.272-2.414 1.484.251.816.563 8.164.693 16.329.274 17.21-.373 19.492-6.93 24.448-3.711 2.804-3.896 2.847-11.172 2.561-6.778-.266-7.732-.526-11.383-3.1l-3.985-2.81-1.82 1.709c-4.283 4.024-13.973 5.977-19.56 3.944zm12.787-6.93c5.342-2.534 5.4-2.81 5.4-25.195v-20.263l-3.18.582c-1.75.321-6.092 1.89-9.65 3.488-3.557 1.597-6.875 2.904-7.372 2.904-1.676 0-1.981 1.708-2.76 15.435-.888 15.64-.358 18.974 3.534 22.25 3.12 2.625 9.425 2.984 14.028.8zm30.957.055c4.617-2.388 5.267-5.577 4.574-22.422-.627-15.212-.852-16.062-4.26-16.12-.932-.015-4.922-1.357-8.866-2.981-11.16-4.597-10.218-6.105-10.218 16.367 0 21.256.077 21.611 5.4 24.857 3.274 1.997 9.804 2.142 13.37.299zm-47.7-44.855c1.682-.624 5.921-2.402 9.42-3.95 5.718-2.53 7.177-2.818 14.42-2.848 7.48-.031 8.637.206 16.117 3.296 7.272 3.005 8.926 3.361 16.964 3.652 10.9.394 13.814-.743 16.814-6.557 5.175-10.033-2.39-23.534-15.503-27.668l-4.406-1.388-3.937 3.005c-13.593 10.376-37.454 10.57-52.763.431l-4.057-2.687-4.336 1.528c-10.162 3.582-17.474 12.303-17.474 20.841 0 6.664 4.212 12.458 9.926 13.652 4.2.877 14.936.132 18.815-1.307z"/>
    <path style="fill:#fff;fill-opacity:0;fill-rule:evenodd;stroke-width:.842298" d="M238.91 294.61c-3.833-2.082-5.094-6.864-4.546-17.241.837-15.84 1.318-19.65 2.483-19.65.597 0 3.907-1.293 7.355-2.874 3.448-1.58 7.51-3.138 9.026-3.46l2.756-.586v19.388c0 16.552-.202 19.677-1.383 21.363-2.789 3.982-11.035 5.59-15.69 3.06z"/>
    <path style="fill:#fff;fill-opacity:1;fill-rule:evenodd;stroke-width:.842298" d="M269.657 294.291c-4.894-2.608-5.127-3.693-5.16-24.06-.019-11.426.284-18.45.796-18.45.454 0 3.751 1.163 7.326 2.583 3.575 1.42 7.88 2.867 9.565 3.215l3.065.633.75 14.082c.414 7.745.49 15.126.17 16.403-.32 1.277-1.68 3.417-3.02 4.757-2.024 2.025-3.126 2.43-6.53 2.4-2.251-.019-5.384-.723-6.962-1.563z"/>
    <path style="fill:#fff;fill-opacity:1;fill-rule:evenodd;stroke-width:.842298" d="M269.724 294.471c-4.898-2.414-5.257-4.08-5.257-24.41 0-11.295.316-18.28.826-18.28.454 0 3.751 1.163 7.326 2.583 3.575 1.42 7.88 2.867 9.565 3.215l3.065.633.75 14.082c.414 7.745.49 15.126.17 16.403-.32 1.277-1.68 3.417-3.02 4.757-2.017 2.018-3.137 2.433-6.53 2.417-2.251-.01-5.354-.64-6.895-1.4zM238.91 294.61c-3.833-2.082-5.094-6.864-4.546-17.241.837-15.84 1.318-19.65 2.483-19.65.597 0 3.907-1.293 7.355-2.874 3.448-1.58 7.51-3.138 9.026-3.46l2.756-.586v19.388c0 16.552-.202 19.677-1.383 21.363-2.789 3.982-11.035 5.59-15.69 3.06zM287.42 153.425c-.967-1.23-1.758-2.896-1.758-3.703 0-2.601 3.318-5.937 5.905-5.937 5.254 0 8.24 5.598 5.108 9.579-2.48 3.152-6.801 3.18-9.255.06zM469.913 154.007c-1.072-3.374-3.21-9.025-4.751-12.558l-2.803-6.425 3.28-2.752c4.74-3.98 6.989-8.767 7.017-14.936.069-15.08-14.87-24.26-28.501-17.515l-3.126 1.547-3.24-3.891c-1.783-2.14-6.011-6.797-9.397-10.349l-6.156-6.457 5.175-2.323c10.616-4.764 28.906-6.107 41.008-3.012 8.585 2.196 14.515 5.67 20.253 11.869 7.904 8.537 11.613 18.571 11.595 31.37-.018 13.033-3.815 22.484-12.631 31.441-4.738 4.813-12.757 10.195-15.11 10.141-.366-.008-1.542-2.776-2.613-6.15zM114.837 158.854c-3.67-3.671-.96-10.179 4.242-10.179 1.413 0 3.298.754 4.24 1.697 3.672 3.671.96 10.179-4.24 10.179-1.414 0-3.3-.754-4.242-1.697zM38.18 169.059c-15.984-7.996-25.15-22.844-25.121-40.696.035-21.687 12.808-38.55 32.766-43.255 6.828-1.61 22.255-1.611 29.847-.002 5.883 1.246 13.21 3.705 13.21 4.433 0 .213-2.137 2.738-4.748 5.61-2.61 2.873-6.671 7.8-9.023 10.95-2.351 3.148-4.433 5.725-4.625 5.725-.192 0-1.571-.641-3.064-1.424-4.073-2.136-12.848-1.962-17.215.34-4.336 2.287-8.33 6.763-9.678 10.85-.568 1.719-.877 5.56-.687 8.537.273 4.299.866 6.155 2.881 9.022 2.284 3.25 6.48 6.808 9.028 7.658.626.208-.45 4.563-3.104 12.568-2.235 6.737-4.152 12.349-4.26 12.47-.109.122-2.902-1.131-6.208-2.785z"/>
    <path style="fill:#e0760a;fill-opacity:1;fill-rule:evenodd;stroke-width:.842298" d="M105.62 382.134c-4.296-1.923-4.96-.697-16.7-11.474l-4.906-4.479-.404-12.013-.443-12.193c-.374-.002 29.81 2.875 41.392 13.925 2.199 2.379 2.935 7.8 2.462 11.424l-.423 3.25-7.035-4.934c-6.717-4.712-9.088-1.592-9.062 1.762.012 1.455 2.604 2.66 7.07 5.601 3.263 2.15 5.75 4.132 5.983 4.511.235.38-1.467 2.26-3.114 3.707-3.488 3.062-8.553 3.719-14.82.913z"/>
    <path style="fill:#eecc8a;fill-opacity:1" d="M427.83 25.655c16.14 16.14 3.92 45.982-80.1 130.002-19.29 19.29-81.24 88.418-99.48 104.138l-104.995 68.546-12.45-5.664 3.123-32.945c15.73-18.24 93.232-121.877 112.522-141.167 84.03-84.03 165.23-139.06 181.38-122.91z" transform="matrix(.34262 0 0 .36185 330.935 280.936)"/>
    <path style="fill:#45b559;fill-opacity:1" d="M128.63 336.865c9.33 15.72 7.78 34.88-2.42 48.72l.02.01c-5.99 8.47-13.81 15.83-23.31 21.47-30.59 18.16-68.69 12.62-92.92-11.2 4.93-1.01 9.77-2.86 14.33-5.56 12.97-7.7 20.82-20.71 22.38-34.62.05-.07.04-.16.05-.21-.02-.26.02-.5.07-.8-.02-.03.01-.05-.01-.08l.04.01c1.46-13.31 8.89-25.8 21.29-33.16 18.14-10.77 40.88-7.04 54.72 7.75.03.03.06.06.08.09.18.23.38.45.59.66l.05.05c1.87 2.09 3.56 4.38 5.04 6.87z" transform="matrix(.34262 0 0 .36185 330.935 280.936)"/>
    <path style="fill:#000;fill-opacity:1" d="M131.863 342.735c-5.621.001-11.067-1.461-15.285-5.61l-.141-.141a16.995 16.995 0 0 1-1.131-1.248 9.554 9.554 0 0 1-.324-.394c-6.735-8.644-5.577-21.778 3.646-41.333 7.3-15.479 19.402-34.46 35.969-56.417 9.326-12.369 19.927-25.456 31.507-38.894 16.337-18.945 34.261-38.19 53.274-57.204 41.077-41.077 82.844-76.672 117.606-100.229 40.909-27.723 65.668-34.93 77.916-22.681 12.244 12.245 5.035 37.002-22.688 77.911-23.561 34.768-59.153 76.533-100.222 117.601-19.047 19.047-38.296 36.971-57.213 53.274-13.527 11.668-26.688 22.329-39.114 31.684-22.122 16.681-41.964 29.253-57.374 36.354-4.77 2.198-15.9 7.326-26.426 7.327zm-1.058-20.058c3.278.33 20.858-.413 72.825-39.596 12.079-9.095 24.893-19.475 38.089-30.858 18.547-15.985 37.431-33.569 56.13-52.269 38.12-38.12 71.701-77.168 94.557-109.951 25.425-36.468 29.005-52.98 28.208-57.135-4.146-.797-20.659 2.772-57.128 28.197-32.781 22.853-71.834 56.439-109.966 94.571-18.667 18.667-36.253 37.548-52.268 56.12-11.295 13.107-21.621 25.852-30.688 37.879-39.311 52.1-40.094 69.73-39.759 73.042z" transform="matrix(.34262 0 0 .36185 330.935 280.936)"/>
    <path style="fill:#000;fill-opacity:1" d="M63.756 427.816c-22.182 0-44.145-8.479-60.767-24.819a10 10 0 0 1 5.004-16.927c3.921-.803 7.703-2.273 11.242-4.368 9.865-5.856 16.261-15.747 17.538-27.13l.017-.142c.017-.228.039-.438.063-.628a9.84 9.84 0 0 1 .187-1.286c2.131-16.681 11.568-31.098 26.007-39.67 21.658-12.859 49.843-8.883 67.058 9.444.066.069.131.138.195.208.281.294.56.604.854.952a54.251 54.251 0 0 1 6.074 8.305c11.008 18.547 9.992 41.687-2.534 59.168a10.12 10.12 0 0 1-.297.445c-6.988 9.882-15.86 18.056-26.37 24.295a86.608 86.608 0 0 1-44.271 12.153zm-33.855-29.191c20.58 12.104 46.65 12.465 67.915-.159 7.9-4.69 14.59-10.792 19.891-18.142.142-.229.293-.453.454-.671a34.082 34.082 0 0 0 1.87-37.684 34.147 34.147 0 0 0-3.892-5.305 8.477 8.477 0 0 1-.23-.267l-.079-.092a9.686 9.686 0 0 1-.398-.423c-10.854-11.462-28.557-13.924-42.176-5.838-9.273 5.504-15.27 14.854-16.455 25.652-.018.163-.04.325-.065.486a10.677 10.677 0 0 1-.164 1.272c-2.129 17.212-11.811 32.16-26.671 41.171z" transform="matrix(.34262 0 0 .36185 330.935 280.936)"/>
    <g transform="translate(-4.819 30.13) scale(1.2348)">
        <path fill="none" stroke="#000" stroke-width="5.993" stroke-linecap="round" stroke-linejoin="round" stroke-miterlimit="10" d="M369.477 262.04c-13.346 1.875-28.89 5.754-36.978 10.685-7.32 4.464-6.359 17.603-1.151 24.103 5.496 6.863 11.945 6.496 19.732 2.905 5.11-2.357 11.266-7.61 17.625-13.494.16-5.127.338-10.258.542-15.377.12-3.04.195-5.976.23-8.823z"/>
        <path fill="none" stroke="#000" stroke-width="5.993" stroke-linecap="round" stroke-linejoin="round" stroke-miterlimit="10" d="M329.269 293.43c3.325-2.398 5.674-4.993 11.756-8.099"/>
        <a>
            <path style="fill:#e0760a;fill-opacity:1;fill-rule:evenodd;stroke-width:.682135" d="M337.62 298.319s-2.123-1.15-2.881-2.149l-1.582-1.965 2.79-2.171c1.328-1.033 4.342-2.96 5.91-3.684 2.612-1.206 3.07-5.013-.459-6.112-.972-.303-2.326.557-5.47 2.453-2.508 1.513-4.72 3.508-4.93 3.508-.773 0-1.095-6.01-.23-8.445 1.37-3.854 2.613-4.848 13.224-8.834 5.486-2.061 21.955-5.71 22.411-5.252 0 0 .015 4.966-.236 10.048l-.414 9.334-8.042 6.818c-5.353 4.43-14.08 9.42-20.09 6.45z"/>
        </a>
    </g>
    <path style="fill:#fff;fill-opacity:1;fill-rule:evenodd;stroke-width:.595597" d="M158.518 209.936c-13.044-2.727-23.409-8.207-32.894-17.393-22.217-21.517-24.765-54.644-6.107-79.405 15.705-20.841 43.756-29.99 69.278-22.594 21.728 6.297 38.272 23.028 43.873 44.372 2.186 8.33 2.31 20.253.294 28.07-5.846 22.658-22.389 39.418-45.17 45.765-4.72 1.315-7.11 1.59-15.479 1.778-6.821.153-11.108-.031-13.795-.593zm-15.792-35.446c11.31-5.538 16.04-17.93 11.494-30.115-.96-2.573-2.305-4.476-5.244-7.415-5.32-5.32-8.97-6.797-16.862-6.824-5.231-.017-6.038.142-9.597 1.896-14.604 7.198-18.297 25.59-7.483 37.27 7.36 7.948 17.989 9.94 27.692 5.188zM330.959 202.562c-12.652-1.76-26.644-8.906-36.002-18.386-7.866-7.969-13.37-17.542-16.251-28.267-1.692-6.299-1.556-22.746.243-29.26 2.861-10.367 8.914-20.509 16.781-28.12 26.015-25.173 67.416-24.295 92.177 1.953 6.956 7.373 11.438 15.286 14.48 25.566 2.236 7.552 2.65 19.145.972 27.233-5.15 24.824-24.986 43.935-50.658 48.805-4.438.841-17.12 1.12-21.742.476zm-16.37-33.627c4.705-2.316 8.928-6.628 11.163-11.396 1.44-3.07 1.608-4.121 1.605-10.028 0-6.24-.105-6.792-1.896-10.196a25.42 25.42 0 0 0-10.697-10.71c-3.428-1.797-3.924-1.886-10.496-1.886-6.587 0-7.06.086-10.497 1.9-4.632 2.444-8.797 6.753-10.916 11.296-1.504 3.223-1.68 4.256-1.68 9.896 0 5.566.186 6.694 1.596 9.702 2.816 6.006 8.238 10.823 14.47 12.854 1.595.52 4.544.762 7.988.656 4.736-.145 5.975-.421 9.36-2.088z"/>
    <path style="fill:#fff;fill-opacity:1;fill-rule:evenodd;stroke-width:.595597" d="M330.959 202.562c-.99-.137-3.872-.772-6.404-1.41-24.055-6.065-42.869-26.172-46.695-49.906-1.064-6.597-.452-19.196 1.215-25.027 2.944-10.296 8.884-20.172 16.655-27.69 16.544-16.008 39.573-21.963 62.22-16.088 6.066 1.573 16.802 6.825 21.948 10.737 7.89 5.997 15.1 14.887 19.147 23.608 5.04 10.86 6.707 24.96 4.314 36.495-3.86 18.61-16.19 34.466-33.48 43.05-5.436 2.699-12.9 5.155-18.356 6.04-3.622.588-16.83.71-20.564.191zm-16.37-33.627c4.705-2.316 8.928-6.628 11.163-11.396 1.439-3.069 1.608-4.125 1.608-10.028 0-6.085-.132-6.848-1.7-9.826-2.381-4.523-6.646-8.862-10.886-11.076-3.406-1.778-3.978-1.884-10.206-1.887-5.906-.002-6.957.166-10.028 1.605-4.789 2.244-9.079 6.456-11.42 11.212-1.819 3.695-1.944 4.356-1.944 10.26 0 5.58.185 6.704 1.595 9.714 2.816 6.006 8.238 10.823 14.47 12.854 1.595.52 4.544.762 7.988.656 4.736-.145 5.975-.421 9.36-2.088z"/>
    <path style="fill:#fff;fill-opacity:1;fill-rule:evenodd;stroke-width:.595597" d="M330.659 202.603c-9.8-1.949-17.976-5.156-25.264-9.91-14.824-9.667-24.843-24.748-27.535-41.447-1.064-6.597-.452-19.196 1.215-25.027 2.944-10.296 8.884-20.172 16.655-27.69 25.001-24.191 64.323-24.478 89.577-.654 12.056 11.373 18.213 24.786 18.93 41.24.259 5.927.1 9.066-.66 13.09-3.935 20.846-18.465 38.349-38.43 46.295-8.383 3.337-11.876 3.98-22.792 4.198-5.608.112-10.871.07-11.696-.095zm-16.646-33.399c5.024-2.457 9.082-6.407 11.38-11.073 1.845-3.749 1.967-4.388 1.967-10.307 0-5.591-.183-6.701-1.608-9.74-2.246-4.792-6.456-9.08-11.215-11.42-3.697-1.82-4.36-1.945-10.26-1.945-5.587 0-6.698.184-9.737 1.608-4.789 2.244-9.079 6.456-11.42 11.212-1.819 3.695-1.944 4.356-1.944 10.26 0 5.65.17 6.657 1.629 9.627 2.13 4.338 5.124 7.776 8.854 10.17 4.521 2.901 7.351 3.618 13.542 3.428 4.5-.137 6.012-.45 8.812-1.82z"/>
    <path style="fill:#fff;fill-opacity:1;fill-rule:evenodd;stroke-width:.595597" d="M330.659 202.616c-27.89-5.305-48.625-25.478-52.8-51.37-1.063-6.597-.451-19.196 1.216-25.027 2.832-9.905 7.804-18.485 15.174-26.188 5.553-5.804 11.589-10.117 19.176-13.703 23.97-11.33 52.488-6.748 71.882 11.547 12.164 11.475 18.25 24.834 18.922 41.54.269 6.662.116 9.106-.862 13.794-4.857 23.29-22.439 41.563-46.218 48.033-3.603.98-6.804 1.296-14.794 1.455-5.608.113-10.871.076-11.696-.08zm-16.483-33.542c4.54-2.146 9.148-6.733 11.42-11.366 1.612-3.288 1.764-4.142 1.764-9.897 0-5.577-.184-6.69-1.608-9.727-2.245-4.791-6.456-9.08-11.214-11.42-3.7-1.82-4.353-1.944-10.26-1.94-5.587.006-6.703.19-9.768 1.622-4.414 2.062-9.308 6.955-11.57 11.569-2.614 5.331-2.614 14.461 0 19.793 2.995 6.108 9.267 11.334 15.56 12.964 1.028.266 4.168.397 6.979.291 4.099-.155 5.818-.528 8.697-1.889z"/>
    <path style="fill:#00f6eb;fill-opacity:1;fill-rule:evenodd;stroke-width:.595597" d="M40.19 170.312c-8.001-3.323-16.45-10.608-21.01-18.115-10.098-16.622-7.833-40.908 5.14-55.132 8.128-8.912 20.164-13.543 35.199-13.543 10.688 0 21.938 2.01 27.693 4.945l2.382 1.215-5.142 5.51c-2.828 3.031-7.073 8.11-9.435 11.287l-4.293 5.776-3.337-1.565c-2.777-1.303-4.192-1.565-8.435-1.565-4.36 0-5.59.24-8.493 1.667-3.73 1.83-6.905 4.981-9.025 8.952-1.17 2.192-1.376 3.47-1.376 8.574 0 5.527.14 6.25 1.78 9.21 2.036 3.677 6.101 7.511 9.12 8.603 1.406.509 1.974 1.04 1.778 1.664-.158.504-1.761 5.253-3.562 10.553-1.8 5.3-3.463 10.496-3.693 11.546-.498 2.265-.79 2.288-5.29.418zM469.645 153.69c-1.236-3.728-3.408-9.464-4.828-12.746l-2.582-5.968 2.421-1.847c5.653-4.311 8.55-10.61 8.006-17.4-1.134-14.121-16.014-22.222-28.75-15.651l-2.806 1.448-4.794-5.498c-2.637-3.023-6.84-7.515-9.34-9.98-2.5-2.466-4.545-4.682-4.545-4.923 0-.826 5.091-3.382 9.297-4.669 13.396-4.098 31.356-3.932 42.234.39 15.303 6.081 24.18 18.452 26.497 36.926 1.108 8.84-1.392 20.447-6.133 28.472-4.08 6.907-15.315 16.495-20.922 17.856-1.457.354-1.587.133-3.755-6.41z"/>
</svg>
